<svg xmlns="http://www.w3.org/2000/svg" width="1200" height="800" viewBox="0 0 1200 800">
  <defs>
    <linearGradient id="g07" x1="0" y1="0" x2="1" y2="1">
      <stop offset="0" stop-color="#1E2A3A"/>
      <stop offset="1" stop-color="#5C8BFF"/>
    </linearGradient>
    <linearGradient id="v07" x1="0" y1="0" x2="0" y2="1">
      <stop offset="0" stop-color="#ffffff" stop-opacity="0.10"/>
      <stop offset="1" stop-color="#ffffff" stop-opacity="0.02"/>
    </linearGradient>
  </defs>
  <rect width="1200" height="800" fill="url(#g07)"/>
  <rect width="1200" height="800" fill="url(#v07)"/>
  <g fill="#ffffff" fill-opacity="0.16">
    <rect x="340" y="320" width="120" height="360" rx="8"/>
    <rect x="480" y="240" width="120" height="440" rx="8"/>
    <rect x="620" y="360" width="120" height="320" rx="8"/>
    <rect x="760" y="280" width="120" height="400" rx="8"/>
  </g>
  <g fill="#ffffff" fill-opacity="0.22">
    <rect x="356" y="340" width="22" height="22"/><rect x="392" y="340" width="22" height="22"/><rect x="428" y="340" width="22" height="22"/>
    <rect x="496" y="260" width="22" height="22"/><rect x="532" y="260" width="22" height="22"/><rect x="568" y="260" width="22" height="22"/>
    <rect x="636" y="380" width="22" height="22"/><rect x="672" y="380" width="22" height="22"/><rect x="708" y="380" width="22" height="22"/>
    <rect x="776" y="300" width="22" height="22"/><rect x="812" y="300" width="22" height="22"/><rect x="848" y="300" width="22" height="22"/>
  </g>
  <rect x="0" y="700" width="1200" height="100" fill="#000000" fill-opacity="0.25"/>
</svg>
